<?xml version="1.0" encoding="utf-8"?>
<!-- Generator: Adobe Illustrator 24.0.2, SVG Export Plug-In . SVG Version: 6.00 Build 0)  -->
<svg version="1.1" id="Layer_1" xmlns="http://www.w3.org/2000/svg" xmlns:xlink="http://www.w3.org/1999/xlink" x="0px" y="0px"
	 viewBox="0 0 416 108" style="enable-background:new 0 0 416 108;" xml:space="preserve">
<style type="text/css">
	.st0{fill:#FFFFFF;}
</style>
<g>
	<g>
		<path class="st0" d="M67.05,28.08c-6.34-4.42-15.06-2.86-19.48,3.48s-2.86,15.06,3.48,19.48s15.05,2.86,19.47-3.48
			S73.39,32.5,67.05,28.08z M55.05,45.3c-3.17-2.21-3.94-6.57-1.73-9.74c2.21-3.17,6.56-3.95,9.73-1.74
			c3.17,2.21,3.95,6.57,1.74,9.74S58.22,47.51,55.05,45.3z"/>
		<path class="st0" d="M94.1,41.3c-0.06,1.78-0.26,3.53-0.59,5.23l-11.04-7.69c-0.23-7.15-3.71-14.09-10.02-18.5
			c-10.62-7.41-25.22-4.8-32.63,5.82c-7.4,10.61-4.79,25.22,5.83,32.62c6.31,4.41,14.04,5.27,20.82,3l13.07,9.12l-20.78,32.24
			L33.83,64.45v-0.01L26.3,52.78c-0.09-0.24-0.19-0.48-0.27-0.73v-0.01c-1.53-4.16-2.28-8.68-2.11-13.38
			c0.73-19.38,17.03-34.5,36.41-33.77C79.71,5.62,94.84,21.92,94.1,41.3z"/>
	</g>
	<g>
		<g>
			<path class="st0" d="M112.34,63.55v-0.17c0-9.42,7.15-14.3,17.83-14.3c4.21,0,8.33,0.84,10.93,1.77v-0.76
				c0-4.71-2.94-7.4-9.08-7.4c-4.79,0-8.5,0.93-12.53,2.52l-3.28-11.27c5.13-2.1,10.6-3.53,18.42-3.53c8.16,0,13.71,1.93,17.33,5.55
				c3.45,3.36,4.88,8.07,4.88,14.47v26.16h-15.81v-4.71c-3.11,3.45-7.4,5.72-13.37,5.72C118.98,77.59,112.34,72.63,112.34,63.55z
				 M141.27,60.1V58c-1.6-0.67-3.87-1.18-6.22-1.18c-4.63,0-7.32,2.27-7.32,5.64v0.17c0,3.11,2.36,4.96,5.64,4.96
				C137.99,67.58,141.27,64.64,141.27,60.1z"/>
			<path class="st0" d="M162.14,60.86V31.08h15.98v24.65c0,4.96,2.61,7.65,6.48,7.65c3.79,0,6.64-2.69,6.64-7.65V31.08h15.98v45.51
				h-15.98v-6.22c-2.94,3.79-7.15,7.23-13.63,7.23C167.94,77.59,162.14,71.2,162.14,60.86z"/>
		</g>
		<path class="st0" d="M230.1,53.5l-19.35-28.93h18.76l10.43,16.57l10.51-16.57h18.34l-19.35,28.77l20.19,30.11h-18.76L239.6,65.69
			l-11.36,17.75H209.9L230.1,53.5z"/>
		<g>
			<path class="st0" d="M266.69,54.13v-0.17c0-12.87,10.01-23.72,24.39-23.72c9.34,0,15.56,4.04,19.43,10.18l-10.85,8.07
				c-2.19-3.03-4.63-4.79-8.5-4.79c-5.13,0-8.92,4.54-8.92,10.09v0.17c0,5.89,3.7,10.35,9.08,10.35c3.79,0,6.22-1.77,8.75-4.71
				l10.68,7.74c-4.21,6.22-10.26,10.43-20.27,10.43C276.78,77.76,266.69,67,266.69,54.13z"/>
			<path class="st0" d="M311.6,63.63v-0.17c0-9.42,7.15-14.3,17.83-14.3c4.21,0,8.33,0.84,10.93,1.77v-0.76
				c0-4.71-2.94-7.4-9.08-7.4c-4.79,0-8.5,0.93-12.53,2.52l-3.28-11.27c5.13-2.1,10.6-3.53,18.42-3.53c8.16,0,13.71,1.93,17.33,5.55
				c3.45,3.36,4.88,8.07,4.88,14.47v26.16h-15.81v-4.71c-3.11,3.45-7.4,5.72-13.37,5.72C318.25,77.68,311.6,72.71,311.6,63.63z
				 M340.54,60.18v-2.1c-1.6-0.67-3.87-1.18-6.22-1.18c-4.63,0-7.32,2.27-7.32,5.64v0.17c0,3.11,2.36,4.96,5.64,4.96
				C337.26,67.67,340.54,64.72,340.54,60.18z"/>
			<path class="st0" d="M361.74,31.16h15.98v9.17c2.61-6.22,6.81-10.26,14.38-9.93v16.82h-1.35c-8.33,0-13.04,4.79-13.04,15.31
				v14.13h-15.98v-45.5H361.74z"/>
		</g>
	</g>
</g>
</svg>
